<svg width="24" height="24" viewBox="0 0 24 24" fill="none" xmlns="http://www.w3.org/2000/svg">
<g clip-path="url(#clip0_75_234)">
<path d="M23.4404 12.2244C23.4404 11.2412 23.3606 10.5236 23.1879 9.77954H11.96V14.2175H18.5505C18.4177 15.3204 17.7002 16.9814 16.1056 18.0975L16.0833 18.246L19.6334 20.9962L19.8793 21.0208C22.1382 18.9346 23.4404 15.8652 23.4404 12.2244Z" fill="#4285F4"/>
<path d="M11.9596 23.9176C15.1884 23.9176 17.899 22.8545 19.8789 21.0209L16.1053 18.0976C15.0954 18.8018 13.7401 19.2934 11.9596 19.2934C8.79716 19.2934 6.1131 17.2074 5.15631 14.324L5.01606 14.3359L1.32464 17.1927L1.27637 17.3269C3.2429 21.2334 7.28232 23.9176 11.9596 23.9176Z" fill="#34A853"/>
<path d="M5.15649 14.324C4.90403 13.58 4.75792 12.7826 4.75792 11.9589C4.75792 11.135 4.90403 10.3378 5.14321 9.59366L5.13652 9.43519L1.39884 6.53247L1.27655 6.59064C0.466045 8.21174 0.000976562 10.0322 0.000976562 11.9589C0.000976562 13.8855 0.466045 15.7059 1.27655 17.327L5.15649 14.324Z" fill="#FBBC05"/>
<path d="M11.9596 4.62403C14.2051 4.62403 15.7199 5.59402 16.5836 6.40461L19.9586 3.10928C17.8858 1.1826 15.1884 0 11.9596 0C7.28232 0 3.2429 2.68406 1.27637 6.59056L5.14302 9.59359C6.1131 6.7102 8.79716 4.62403 11.9596 4.62403Z" fill="#EB4335"/>
</g>
<defs>
<clipPath id="clip0_75_234">
<rect width="23.4528" height="24" fill="white"/>
</clipPath>
</defs>
</svg>
